<svg width="247" height="340" viewBox="0 0 247 340" fill="none" xmlns="http://www.w3.org/2000/svg">
<circle cx="159.5" cy="245.5" r="1.5" fill="white" fill-opacity="0.1"/>
<circle cx="157.5" cy="188.5" r="1.5" fill="white" fill-opacity="0.5"/>
<circle cx="1.5" cy="163.5" r="1.5" fill="white" fill-opacity="0.5"/>
<circle cx="6.5" cy="74.5" r="1.5" fill="white" fill-opacity="0.5"/>
<circle cx="175.5" cy="20.5" r="1.5" fill="white" fill-opacity="0.5"/>
<circle cx="231.5" cy="87.5" r="1.5" fill="white" fill-opacity="0.5"/>
<circle cx="57.5" cy="284.5" r="1.5" fill="white" fill-opacity="0.1"/>
<path opacity="0.25" d="M242 193L243 197L247 198L243 199L242 203L241 199L237 198L241 197L242 193Z" fill="white"/>
<path opacity="0.5" d="M193 90L194 94L198 95L194 96L193 100L192 96L188 95L192 94L193 90Z" fill="white"/>
<path opacity="0.1" d="M82 330L83 334L87 335L83 336L82 340L81 336L77 335L81 334L82 330Z" fill="white"/>
<path opacity="0.25" d="M39 204L40 208L44 209L40 210L39 214L38 210L34 209L38 208L39 204Z" fill="white"/>
<path opacity="0.8" d="M6 12L7 16L11 17L7 18L6 22L5 18L1 17L5 16L6 12Z" fill="white"/>
<path opacity="0.5" d="M77 48L78 52L82 53L78 54L77 58L76 54L72 53L76 52L77 48Z" fill="white"/>
<path opacity="0.8" d="M240 0L241 4L245 5L241 6L240 10L239 6L235 5L239 4L240 0Z" fill="white"/>
</svg>
